<?xml version="1.0" encoding="utf-8"?>
<!-- Generator: Adobe Illustrator 25.3.1, SVG Export Plug-In . SVG Version: 6.00 Build 0)  -->
<svg version="1.1" id="Layer_1" xmlns="http://www.w3.org/2000/svg" xmlns:xlink="http://www.w3.org/1999/xlink" x="0px" y="0px"
	 viewBox="0 0 241.77 506.7" style="enable-background:new 0 0 241.77 506.7;" xml:space="preserve">
<style type="text/css">
	.st0{opacity:0.25;}
	.st1{fill:none;stroke:#FFFFFF;stroke-width:1.864;stroke-miterlimit:10;}
	.st2{fill:#FFFFFF;}
	.st3{fill:none;stroke:#FFFFFF;stroke-width:1.2563;stroke-miterlimit:10;}
</style>
<g>
	<g class="st0">
		<polygon class="st1" points="66.05,151.24 142.13,191.42 203.54,155.95 233,88.34 231.18,8 47.73,8 33.26,83.37 		"/>
		<polyline class="st1" points="66.05,151.24 137.42,114.78 203.54,155.95 		"/>
		<polyline class="st1" points="137.42,106.14 136.95,36.66 231.18,8 		"/>
		<polyline class="st1" points="231.62,84.6 136.95,34.53 36.66,81.64 138.99,111.24 231.18,88.34 		"/>
		<polyline class="st1" points="68.75,148.06 136.95,36.66 44.41,14.34 		"/>
		<line class="st1" x1="202.88" y1="152.23" x2="136.95" y2="36.66"/>
		<line class="st1" x1="142.13" y1="191.42" x2="138.99" y2="111.24"/>
		<path class="st2" d="M54.96,13.23c0,4.42-3.51,8-7.86,8s-7.86-3.58-7.86-8c0-4.42,3.51-8,7.86-8S54.96,8.81,54.96,13.23z"/>
		<path class="st2" d="M144.81,36.66c0,4.42-3.52,8-7.86,8c-4.35,0-7.87-3.58-7.87-8s3.52-8,7.87-8
			C141.29,28.66,144.81,32.24,144.81,36.66z"/>
		<path class="st2" d="M236.57,8c0,4.42-3.53,8-7.86,8c-4.34,0-7.86-3.58-7.86-8s3.52-8,7.86-8C233.04,0,236.57,3.58,236.57,8z"/>
		<path class="st2" d="M41.14,83.37c0,4.42-3.52,8-7.87,8c-4.34,0-7.86-3.58-7.86-8c0-4.42,3.53-8,7.86-8
			C37.62,75.37,41.14,78.95,41.14,83.37z"/>
		<path class="st2" d="M150,191.42c0,4.42-3.53,8-7.87,8c-4.35,0-7.86-3.58-7.86-8c0-4.42,3.52-8,7.86-8
			C146.47,183.42,150,187,150,191.42z"/>
		<path class="st2" d="M146.86,111.24c0,4.42-3.52,8-7.86,8c-4.34,0-7.87-3.58-7.87-8c0-4.42,3.53-8,7.87-8
			C143.34,103.24,146.86,106.82,146.86,111.24z"/>
		<path class="st2" d="M241.77,86.45c0,4.42-3.53,8-7.87,8s-7.86-3.58-7.86-8c0-4.42,3.51-8,7.86-8S241.77,82.03,241.77,86.45z"/>
		<path class="st2" d="M73.92,151.24c0,4.42-3.52,8-7.87,8c-4.34,0-7.86-3.58-7.86-8c0-4.42,3.53-8,7.86-8
			C70.4,143.24,73.92,146.82,73.92,151.24z"/>
		<path class="st2" d="M211.41,155.95c0,4.42-3.52,8-7.86,8c-4.34,0-7.86-3.58-7.86-8c0-4.41,3.53-8,7.86-8
			C207.88,147.95,211.41,151.53,211.41,155.95z"/>
	</g>
	<g class="st0">
		<polygon class="st3" points="27.39,474.23 78.67,501.31 120.06,477.4 139.92,431.83 138.69,377.69 15.05,377.69 5.3,428.49 		"/>
		<polyline class="st3" points="27.39,474.23 75.5,449.66 120.06,477.4 		"/>
		<polyline class="st3" points="75.5,443.84 75.18,397.01 138.69,377.69 		"/>
		<polyline class="st3" points="138.99,429.32 75.18,395.57 7.59,427.32 76.56,447.27 138.69,431.83 		"/>
		<polyline class="st3" points="29.22,472.08 75.18,397.01 12.81,381.96 		"/>
		<line class="st3" x1="119.62" y1="474.89" x2="75.18" y2="397.01"/>
		<line class="st3" x1="78.67" y1="501.31" x2="76.56" y2="447.27"/>
		<path class="st2" d="M19.92,381.22c0,2.98-2.37,5.39-5.3,5.39s-5.3-2.41-5.3-5.39c0-2.98,2.37-5.39,5.3-5.39
			S19.92,378.24,19.92,381.22z"/>
		<path class="st2" d="M80.48,397.01c0,2.98-2.37,5.39-5.3,5.39c-2.93,0-5.3-2.41-5.3-5.39c0-2.98,2.37-5.39,5.3-5.39
			C78.1,391.62,80.48,394.03,80.48,397.01z"/>
		<path class="st2" d="M142.32,377.69c0,2.98-2.38,5.39-5.3,5.39c-2.93,0-5.3-2.41-5.3-5.39c0-2.98,2.37-5.39,5.3-5.39
			C139.94,372.3,142.32,374.71,142.32,377.69z"/>
		<path class="st2" d="M10.61,428.49c0,2.98-2.37,5.39-5.31,5.39c-2.92,0-5.3-2.41-5.3-5.39c0-2.98,2.38-5.39,5.3-5.39
			C8.23,423.1,10.61,425.51,10.61,428.49z"/>
		<path class="st2" d="M83.97,501.31c0,2.98-2.38,5.39-5.3,5.39c-2.93,0-5.3-2.41-5.3-5.39c0-2.98,2.37-5.39,5.3-5.39
			C81.6,495.92,83.97,498.33,83.97,501.31z"/>
		<path class="st2" d="M81.86,447.27c0,2.98-2.37,5.39-5.3,5.39c-2.92,0-5.31-2.41-5.31-5.39c0-2.98,2.38-5.39,5.31-5.39
			C79.49,441.88,81.86,444.29,81.86,447.27z"/>
		<path class="st2" d="M145.82,430.56c0,2.98-2.38,5.39-5.31,5.39c-2.93,0-5.3-2.41-5.3-5.39c0-2.98,2.37-5.39,5.3-5.39
			C143.44,425.17,145.82,427.58,145.82,430.56z"/>
		<path class="st2" d="M32.7,474.23c0,2.98-2.37,5.39-5.31,5.39c-2.92,0-5.3-2.41-5.3-5.39c0-2.98,2.38-5.39,5.3-5.39
			C30.33,468.84,32.7,471.25,32.7,474.23z"/>
		<path class="st2" d="M125.36,477.4c0,2.98-2.37,5.39-5.3,5.39c-2.92,0-5.3-2.41-5.3-5.39c0-2.97,2.38-5.39,5.3-5.39
			C122.99,472.01,125.36,474.43,125.36,477.4z"/>
	</g>
</g>
</svg>
