<?xml version="1.0" encoding="utf-8"?>
<!-- Generator: Adobe Illustrator 25.3.1, SVG Export Plug-In . SVG Version: 6.00 Build 0)  -->
<svg version="1.1" id="Layer_1" xmlns="http://www.w3.org/2000/svg" xmlns:xlink="http://www.w3.org/1999/xlink" x="0px" y="0px"
	 viewBox="0 0 158.54 158.51" style="enable-background:new 0 0 158.54 158.51;" xml:space="preserve">
<style type="text/css">
	.st0{opacity:0.5;}
	.st1{fill:#F3F3F3;}
</style>
<g class="st0">
	<path class="st1" d="M132.96,138.06h-2.56v-58.8c0-4.24-3.43-7.67-7.67-7.67h-12.78v-5.11c0-1.41-1.14-2.56-2.56-2.56h-3.75
		c-0.45-1.43-1.03-2.81-1.72-4.14l2.66-2.65c1-1,1-2.62,0-3.62l-7.23-7.23c-1-1-2.62-1-3.62,0l-2.65,2.65
		c-1.33-0.69-2.71-1.27-4.14-1.72v-3.75c0-1.41-1.14-2.56-2.56-2.56H74.15c-1.41,0-2.56,1.14-2.56,2.56v3.75
		c-1.43,0.45-2.81,1.03-4.14,1.72l-2.65-2.66c-1-1-2.62-1-3.62,0l-7.23,7.23c-1,1-1,2.62,0,3.62l2.65,2.65
		c-0.69,1.33-1.27,2.71-1.72,4.14h-3.75c-1.41,0-2.56,1.14-2.56,2.56v5.11H35.8c-4.24,0-7.67,3.43-7.67,7.67v58.8h-2.56
		c-4.24,0-7.67,3.43-7.67,7.67c0.01,7.06,5.73,12.77,12.78,12.78h97.15c7.06-0.01,12.77-5.73,12.78-12.78
		C140.63,141.49,137.19,138.06,132.96,138.06z M109.95,76.7h12.78c1.41,0,2.56,1.14,2.56,2.56v58.8h-5.11V84.37
		c0-1.41-1.14-2.56-2.56-2.56h-14.95c0.37-0.83,0.7-1.69,0.98-2.56h3.75C108.8,79.26,109.95,78.11,109.95,76.7z M53.96,89.67
		l7.23,7.23c1,1,2.62,1,3.62,0l2.65-2.65c1.33,0.69,2.71,1.27,4.14,1.72v3.75c0,1.41,1.14,2.56,2.56,2.56h10.23
		c1.41,0,2.56-1.14,2.56-2.56v-3.75c1.43-0.45,2.81-1.03,4.14-1.72l2.65,2.66c1,1,2.62,1,3.62,0l7.23-7.23
		c0.72-0.72,0.95-1.8,0.56-2.74h9.92v51.13H43.47V86.93h9.92C53.01,87.87,53.23,88.95,53.96,89.67L53.96,89.67z M53.7,69.03h3.14
		c1.19,0,2.23-0.82,2.5-1.99c0.51-2.24,1.4-4.38,2.63-6.33c0.64-1.01,0.49-2.33-0.36-3.17l-2.23-2.23L63,51.7l2.23,2.23
		c0.85,0.84,2.16,0.99,3.17,0.35c1.94-1.23,4.08-2.11,6.32-2.63c1.16-0.26,1.99-1.3,1.99-2.49v-3.14h5.11v3.14
		c0,1.19,0.83,2.23,1.99,2.49c2.24,0.51,4.38,1.4,6.32,2.63c1.01,0.64,2.33,0.49,3.17-0.35l2.23-2.23l3.62,3.62l-2.23,2.23
		c-0.84,0.84-0.99,2.16-0.36,3.17c1.23,1.94,2.12,4.08,2.63,6.33c0.26,1.16,1.3,1.99,2.49,1.99h3.15v5.11h-3.15
		c-1.19,0-2.23,0.83-2.49,1.99c-0.51,2.24-1.4,4.38-2.63,6.33c-0.64,1.01-0.49,2.33,0.36,3.17l2.23,2.23l-3.62,3.62l-2.23-2.23
		c-0.85-0.84-2.16-0.99-3.17-0.35c-1.94,1.23-4.08,2.12-6.32,2.64c-1.16,0.26-1.98,1.29-1.99,2.48v3.14h-5.11v-3.14
		c0-1.19-0.83-2.23-1.99-2.49c-2.24-0.51-4.38-1.4-6.32-2.63c-1.01-0.64-2.33-0.49-3.17,0.35L63,91.47l-3.62-3.62l2.23-2.23
		c0.84-0.84,0.99-2.16,0.36-3.17c-1.23-1.94-2.12-4.08-2.63-6.33c-0.27-1.16-1.3-1.99-2.5-1.99H53.7V69.03z M33.25,79.26
		c0-1.41,1.14-2.56,2.56-2.56h12.78c0,1.41,1.14,2.56,2.56,2.56h3.75c0.28,0.87,0.61,1.72,0.98,2.56H40.92
		c-1.41,0-2.56,1.14-2.56,2.56v53.69h-5.11V79.26z M127.84,153.4H30.69c-4.24,0-7.67-3.43-7.67-7.67l0,0c0-1.41,1.14-2.56,2.56-2.56
		h107.38c1.41,0,2.56,1.14,2.56,2.56C135.51,149.97,132.08,153.4,127.84,153.4L127.84,153.4z"/>
	<path class="st1" d="M79.27,86.93c8.47,0,15.34-6.87,15.34-15.34s-6.87-15.34-15.34-15.34s-15.34,6.87-15.34,15.34
		C63.94,80.06,70.8,86.92,79.27,86.93z M79.27,61.36c5.65,0,10.23,4.58,10.23,10.23s-4.58,10.23-10.23,10.23
		c-5.65,0-10.23-4.58-10.23-10.23S73.62,61.36,79.27,61.36z"/>
	<path class="st1" d="M130.4,0c-14.53,0.02-26.66,11.1-27.99,25.57H56.13C54.72,10.1,41.04-1.29,25.57,0.12S-1.29,15.21,0.12,30.68
		s15.1,26.86,30.56,25.45C44.19,54.9,54.9,44.19,56.13,30.68h46.28c1.41,15.47,15.1,26.86,30.56,25.45
		c15.47-1.41,26.86-15.1,25.45-30.56C157.1,11.08,144.95-0.01,130.4,0z M28.13,51.13c-12.71,0-23.01-10.3-23.01-23.01
		S15.43,5.12,28.13,5.12s23.01,10.3,23.01,23.01C51.13,40.83,40.84,51.12,28.13,51.13z M130.4,51.13
		c-12.71,0-23.01-10.3-23.01-23.01s10.3-23.01,23.01-23.01s23.01,10.3,23.01,23.01C153.4,40.83,143.1,51.12,130.4,51.13z"/>
	<path class="st1" d="M36.55,13.53L23.02,27.07l-3.31-3.31c-1-1-2.62-1-3.62,0l-5.11,5.11c-1,1-1,2.62,0,3.62l10.23,10.23
		c1,1,2.62,1,3.62,0l20.45-20.45c1-1,1-2.62,0-3.62l-5.11-5.11C39.17,12.54,37.55,12.54,36.55,13.53z M23.02,37.29l-6.61-6.61
		l1.5-1.5l3.31,3.31c1,1,2.62,1,3.62,0l13.53-13.53l1.5,1.5L23.02,37.29z"/>
	<path class="st1" d="M144.99,18.65l-5.11-5.11c-1-1-2.62-1-3.62,0l-5.86,5.86l-5.86-5.86c-1-1-2.62-1-3.62,0l-5.11,5.11
		c-1,1-1,2.62,0,3.62l5.86,5.86l-5.86,5.86c-1,1-1,2.62,0,3.62l5.11,5.11c1,1,2.62,1,3.62,0l5.86-5.86l5.86,5.86c1,1,2.62,1,3.62,0
		l5.11-5.11c1-1,1-2.62,0-3.62l-5.86-5.86l5.86-5.86C145.99,21.26,145.99,19.65,144.99,18.65z M133.71,26.32c-1,1-1,2.62,0,3.62
		l5.86,5.86l-1.5,1.5l-5.86-5.86c-1-1-2.62-1-3.62,0l-5.86,5.86l-1.5-1.5l5.86-5.86c1-1,1-2.62,0-3.62l-5.86-5.86l1.5-1.5l5.86,5.86
		c1,1,2.62,1,3.62,0l5.86-5.86l1.5,1.5L133.71,26.32z"/>
	<path class="st1" d="M23.02,109.94H12.79c-1.41,0-2.56-1.14-2.56-2.56V61.36H5.12v46.02c0,4.24,3.43,7.67,7.67,7.67h10.23V109.94z"
		/>
	<path class="st1" d="M148.3,107.38c0,1.41-1.14,2.56-2.56,2.56h-10.23v5.11h10.23c4.24,0,7.67-3.43,7.67-7.67V61.36h-5.11V107.38z"
		/>
</g>
</svg>
