<?xml version="1.0" encoding="utf-8"?>
<!-- Generator: Adobe Illustrator 25.3.1, SVG Export Plug-In . SVG Version: 6.00 Build 0)  -->
<svg version="1.1" id="Layer_1" xmlns="http://www.w3.org/2000/svg" xmlns:xlink="http://www.w3.org/1999/xlink" x="0px" y="0px"
	 viewBox="0 0 141.22 168.15" style="enable-background:new 0 0 141.22 168.15;" xml:space="preserve">
<style type="text/css">
	.st0{opacity:0.5;}
	.st1{fill:#F3F3F3;}
</style>
<g class="st0">
	<g>
		<g>
			<path class="st1" d="M141.22,70.61c0-18.86-7.34-36.59-20.68-49.93S89.47,0,70.61,0S34.02,7.34,20.68,20.68S0,51.75,0,70.61
				s7.34,36.59,20.68,49.93c5.16,5.16,10.97,9.41,17.25,12.7c-7.48,8.11-11.66,18.69-11.66,29.99v4.93h88.67v-4.93
				c0-11.3-4.18-21.87-11.66-29.98c6.28-3.29,12.1-7.54,17.25-12.7C133.87,107.2,141.22,89.47,141.22,70.61z M104.75,158.29H36.47
				c1.14-8.07,5.08-15.4,11.24-20.86c7.27,2.49,14.99,3.78,22.9,3.78s15.62-1.3,22.9-3.78C99.67,142.89,103.6,150.22,104.75,158.29z
				 M70.61,131.36c-33.5,0-60.76-27.25-60.76-60.76S37.11,9.85,70.61,9.85s60.76,27.25,60.76,60.76S104.11,131.36,70.61,131.36z"/>
		</g>
	</g>
	<g>
		<g>
			<path class="st1" d="M70.61,45.98c-13.58,0-24.63,11.05-24.63,24.63s11.05,24.63,24.63,24.63s24.63-11.05,24.63-24.63
				S84.19,45.98,70.61,45.98z M70.61,85.39c-8.15,0-14.78-6.63-14.78-14.78s6.63-14.78,14.78-14.78s14.78,6.63,14.78,14.78
				S78.76,85.39,70.61,85.39z"/>
		</g>
	</g>
	<g>
		<g>
			<circle class="st1" cx="100.16" cy="41.05" r="6.57"/>
		</g>
	</g>
</g>
</svg>
