<?xml version="1.0" encoding="utf-8"?>
<!-- Generator: Adobe Illustrator 25.3.1, SVG Export Plug-In . SVG Version: 6.00 Build 0)  -->
<svg version="1.1" id="Layer_1" xmlns="http://www.w3.org/2000/svg" xmlns:xlink="http://www.w3.org/1999/xlink" x="0px" y="0px"
	 viewBox="0 0 43 51.2" style="enable-background:new 0 0 43 51.2;" xml:space="preserve">
<style type="text/css">
	.st0{fill:#010101;}
</style>
<g>
	<g>
		<g>
			<path class="st0" d="M43,21.5c0-5.74-2.24-11.14-6.3-15.2S27.24,0,21.5,0S10.36,2.24,6.3,6.3S0,15.76,0,21.5s2.24,11.14,6.3,15.2
				c1.57,1.57,3.34,2.87,5.25,3.87C9.27,43.04,8,46.26,8,49.7v1.5h27v-1.5c0-3.44-1.27-6.66-3.55-9.13c1.91-1,3.68-2.3,5.25-3.87
				C40.76,32.64,43,27.24,43,21.5z M31.89,48.2H11.11c0.35-2.46,1.55-4.69,3.42-6.35C16.74,42.6,19.09,43,21.5,43
				s4.76-0.4,6.97-1.15C30.35,43.51,31.55,45.74,31.89,48.2z M21.5,40C11.3,40,3,31.7,3,21.5S11.3,3,21.5,3S40,11.3,40,21.5
				S31.7,40,21.5,40z"/>
		</g>
	</g>
	<g>
		<g>
			<path class="st0" d="M21.5,14c-4.14,0-7.5,3.36-7.5,7.5s3.36,7.5,7.5,7.5s7.5-3.36,7.5-7.5S25.64,14,21.5,14z M21.5,26
				c-2.48,0-4.5-2.02-4.5-4.5s2.02-4.5,4.5-4.5s4.5,2.02,4.5,4.5S23.98,26,21.5,26z"/>
		</g>
	</g>
	<g>
		<g>
			<circle class="st0" cx="30.5" cy="12.5" r="2"/>
		</g>
	</g>
</g>
</svg>
