<?xml version="1.0" encoding="utf-8"?>
<!-- Generator: Adobe Illustrator 25.3.1, SVG Export Plug-In . SVG Version: 6.00 Build 0)  -->
<svg version="1.1" id="Layer_1" xmlns="http://www.w3.org/2000/svg" xmlns:xlink="http://www.w3.org/1999/xlink" x="0px" y="0px"
	 viewBox="0 0 38.7 30.46" style="enable-background:new 0 0 38.7 30.46;" xml:space="preserve">
<style type="text/css">
	.st0{fill:#4D4D4D;}
</style>
<g>
	<g>
		<g>
			<path class="st0" d="M37.41,4.75c-0.77-0.81-1.84-1.29-3.05-1.29h-6.11V3.38c0-0.92-0.37-1.8-0.99-2.39
				C26.63,0.37,25.79,0,24.87,0H13.83c-0.96,0-1.8,0.37-2.43,0.99c-0.63,0.63-0.99,1.47-0.99,2.39v0.07H4.34
				c-1.21,0-2.28,0.48-3.05,1.29C0.51,5.52,0,6.62,0,7.8v18.32c0,1.21,0.48,2.28,1.29,3.05c0.77,0.77,1.88,1.29,3.05,1.29h30.02
				c1.21,0,2.28-0.48,3.05-1.29c0.77-0.77,1.29-1.88,1.29-3.05V7.8C38.7,6.58,38.22,5.52,37.41,4.75z M36.78,26.12h-0.04
				c0,0.66-0.26,1.25-0.7,1.69c-0.44,0.44-1.03,0.7-1.69,0.7H4.34c-0.66,0-1.25-0.26-1.69-0.7c-0.44-0.44-0.7-1.03-0.7-1.69V7.8
				c0-0.66,0.26-1.25,0.7-1.69s1.03-0.7,1.69-0.7h7.1c0.55,0,0.99-0.44,0.99-0.99V3.35c0-0.4,0.15-0.77,0.4-1.03
				c0.26-0.26,0.63-0.4,1.03-0.4h11c0.4,0,0.77,0.15,1.03,0.4c0.26,0.26,0.4,0.63,0.4,1.03v1.07c0,0.55,0.44,0.99,0.99,0.99h7.1
				c0.66,0,1.25,0.26,1.69,0.7c0.44,0.44,0.7,1.03,0.7,1.69V26.12z"/>
			<path class="st0" d="M19.35,7.91c-2.5,0-4.78,1.03-6.4,2.65c-1.66,1.66-2.65,3.9-2.65,6.4s1.03,4.78,2.65,6.4
				c1.66,1.66,3.9,2.65,6.4,2.65s4.78-1.03,6.4-2.65c1.66-1.66,2.65-3.9,2.65-6.4s-1.03-4.78-2.65-6.4S21.85,7.91,19.35,7.91z
				 M24.35,22c-1.29,1.25-3.05,2.06-5,2.06s-3.72-0.81-5-2.06c-1.29-1.29-2.06-3.05-2.06-5s0.81-3.72,2.06-5
				c1.29-1.29,3.05-2.06,5-2.06s3.72,0.81,5,2.06c1.29,1.29,2.06,3.05,2.06,5C26.45,18.94,25.64,20.71,24.35,22z"/>
			<circle class="st0" cx="32.44" cy="9.67" r="1.8"/>
		</g>
	</g>
</g>
</svg>
