<?xml version="1.0" encoding="utf-8"?>
<!-- Generator: Adobe Illustrator 25.3.1, SVG Export Plug-In . SVG Version: 6.00 Build 0)  -->
<svg version="1.1" id="Layer_1" xmlns="http://www.w3.org/2000/svg" xmlns:xlink="http://www.w3.org/1999/xlink" x="0px" y="0px"
	 viewBox="0 0 180.88 182.9" style="enable-background:new 0 0 180.88 182.9;" xml:space="preserve">
<style type="text/css">
	.st0{fill:none;stroke:#3DB54A;stroke-width:2.922;stroke-miterlimit:10;}
	.st1{opacity:0.25;}
	.st2{fill:none;stroke:#FFFFFF;stroke-width:0.7416;stroke-miterlimit:10;}
	.st3{fill:#FFFFFF;}
</style>
<g>
	<path class="st0" d="M180.18,181.62l-55.72-30.23c0,0-5.56-4.91,2.89-12.84c8.73-8.18,46.47-69.18,11.62-112.53
		C124.86,8.47,106.7,1.42,90.02,1.46h-0.25C73.09,1.42,54.94,8.47,40.82,26.02C5.97,69.37,43.71,130.37,52.44,138.55
		c8.45,7.92,2.89,12.84,2.89,12.84L0.69,180.81"/>
	<g class="st1">
		<polygon class="st2" points="64.51,122.78 94.78,138.76 119.21,124.65 130.93,97.75 130.21,65.79 57.22,65.79 51.46,95.77 		"/>
		<polyline class="st2" points="64.51,122.78 92.9,108.27 119.21,124.65 		"/>
		<polyline class="st2" points="92.9,104.84 92.71,77.19 130.21,65.79 		"/>
		<polyline class="st2" points="130.38,96.27 92.71,76.34 52.82,95.09 93.53,106.86 130.21,97.75 		"/>
		<polyline class="st2" points="65.58,121.51 92.71,77.19 55.9,68.31 		"/>
		<line class="st2" x1="118.95" y1="123.17" x2="92.71" y2="77.19"/>
		<line class="st2" x1="94.78" y1="138.76" x2="93.53" y2="106.86"/>
		<path class="st3" d="M60.09,67.87c0,1.76-1.4,3.18-3.13,3.18s-3.13-1.42-3.13-3.18c0-1.76,1.4-3.18,3.13-3.18
			S60.09,66.11,60.09,67.87z"/>
		<path class="st3" d="M95.84,77.19c0,1.76-1.4,3.18-3.13,3.18c-1.73,0-3.13-1.42-3.13-3.18c0-1.76,1.4-3.18,3.13-3.18
			C94.44,74.01,95.84,75.43,95.84,77.19z"/>
		<path class="st3" d="M132.35,65.79c0,1.76-1.4,3.18-3.13,3.18c-1.73,0-3.13-1.42-3.13-3.18s1.4-3.18,3.13-3.18
			C130.95,62.6,132.35,64.03,132.35,65.79z"/>
		<path class="st3" d="M54.59,95.77c0,1.76-1.4,3.18-3.13,3.18c-1.73,0-3.13-1.43-3.13-3.18c0-1.76,1.4-3.18,3.13-3.18
			C53.19,92.59,54.59,94.02,54.59,95.77z"/>
		<path class="st3" d="M97.91,138.76c0,1.76-1.4,3.18-3.13,3.18c-1.73,0-3.13-1.43-3.13-3.18c0-1.76,1.4-3.18,3.13-3.18
			C96.5,135.58,97.91,137.01,97.91,138.76z"/>
		<path class="st3" d="M96.66,106.86c0,1.76-1.4,3.18-3.13,3.18c-1.73,0-3.13-1.43-3.13-3.18c0-1.76,1.41-3.18,3.13-3.18
			C95.26,103.68,96.66,105.1,96.66,106.86z"/>
		<path class="st3" d="M134.42,97c0,1.76-1.4,3.18-3.13,3.18c-1.73,0-3.13-1.43-3.13-3.18c0-1.76,1.4-3.18,3.13-3.18
			C133.01,93.82,134.42,95.24,134.42,97z"/>
		<path class="st3" d="M67.64,122.78c0,1.76-1.4,3.18-3.13,3.18c-1.72,0-3.13-1.43-3.13-3.18c0-1.76,1.4-3.18,3.13-3.18
			C66.24,119.59,67.64,121.02,67.64,122.78z"/>
		<path class="st3" d="M122.34,124.65c0,1.76-1.4,3.18-3.13,3.18c-1.73,0-3.13-1.42-3.13-3.18c0-1.76,1.4-3.18,3.13-3.18
			C120.94,121.47,122.34,122.9,122.34,124.65z"/>
	</g>
</g>
</svg>
