<?xml version="1.0" encoding="utf-8"?>
<!-- Generator: Adobe Illustrator 25.4.1, SVG Export Plug-In . SVG Version: 6.00 Build 0)  -->
<svg version="1.1" id="Layer_1" xmlns="http://www.w3.org/2000/svg" xmlns:xlink="http://www.w3.org/1999/xlink" x="0px" y="0px"
	 viewBox="0 0 114.3 25.3" style="enable-background:new 0 0 114.3 25.3;" xml:space="preserve">
<style type="text/css">
	.st0{fill-rule:evenodd;clip-rule:evenodd;fill:#1F3777;}
	.st1{fill:#1F3777;}
</style>
<g id="Larsen__and_amp__Toubro__L_and_amp_T__00000002358622173985076240000011864372443158129545_" transform="translate(-335 -174)">
	<path id="Path_3102_00000018918288892992326410000008463703221491149474_" class="st0" d="M347.7,176.5c5.5,0,10,4.5,10,10
		c0,5.5-4.4,9.9-9.9,10l4.6-8.3h3.1l1.7-3.1h-7.9l-1.7,3.1h3l-4.6,8.2c-5.5-0.9-9.2-6-8.3-11.5c0.6-3.8,3.3-6.9,7-8l-4.5,8.2h0
		l-1.7,3.1h7.9l1.7-3.1h-6.1l4.7-8.6C347.1,176.5,347.4,176.5,347.7,176.5z M347.7,175c6.3,0,11.5,5.1,11.5,11.5S354,198,347.7,198
		s-11.5-5.1-11.5-11.5l0,0C336.2,180.2,341.4,175,347.7,175z"/>
	<path id="Path_3103_00000003076338726548636070000010822710101060945040_" class="st1" d="M364.1,189.6h4.3l0.3-1.1h-2.8l1.1-5
		h-1.5L364.1,189.6z M373.3,188l0.2,1.6h1.6l-0.8-6.1h-2l-3.5,6.1h1.6l0.9-1.6H373.3z M371.7,187l0.7-1.3c0.2-0.4,0.4-0.8,0.6-1.2h0
		c0,0.4,0.1,0.9,0.1,1.2l0.1,1.3H371.7z M375.7,189.6h1.5l0.5-2.4h0.5c0.6,0,0.9,0.2,1,1c0,0.5,0.1,1,0.2,1.4h1.6
		c-0.1-0.3-0.2-1.1-0.3-1.7c-0.1-0.6-0.3-1-0.7-1.1v0c0.9-0.3,1.6-0.8,1.6-1.7c0-0.6-0.3-1-0.8-1.2c-0.5-0.3-1.2-0.4-1.9-0.4
		c-0.6,0-1.3,0-1.9,0.2L375.7,189.6z M378.3,184.5c0.2,0,0.4-0.1,0.6,0c0.6,0,1.1,0.2,1.1,0.7c0,0.6-0.6,1-1.4,1h-0.6L378.3,184.5
		L378.3,184.5z M381.5,189.2c0.3,0.2,1.1,0.4,2.1,0.4c1.6,0,2.9-0.7,2.9-2.1c0-0.7-0.6-1.2-1.4-1.6c-0.6-0.3-1-0.5-1-0.9
		c0-0.3,0.4-0.6,1.1-0.6c0.5,0,0.9,0.1,1.3,0.3l0.5-1.1c-0.3-0.2-0.8-0.3-1.7-0.3c-1.6,0-2.8,0.8-2.8,2c0,0.8,0.7,1.3,1.5,1.6
		c0.7,0.3,1,0.5,1,0.9c0,0.5-0.5,0.7-1.1,0.7c-0.6,0-1.2-0.1-1.7-0.4L381.5,189.2z M391.9,185.9h-2.6l0.3-1.3h2.7l0.3-1.1h-4.3
		l-1.4,6.1h4.4l0.2-1.1h-2.9l0.3-1.5h2.6L391.9,185.9L391.9,185.9z M393.7,189.6l0.5-2.2c0.2-1,0.4-1.8,0.5-2.4l0,0
		c0.2,0.7,0.4,1.4,0.7,2.1l1,2.5h1.6l1.4-6.1h-1.4l-0.5,2.2c-0.2,0.7-0.3,1.5-0.3,2.2h0c-0.2-0.7-0.4-1.4-0.7-2.1l-1-2.3h-1.8
		l-1.4,6.1L393.7,189.6L393.7,189.6z M407.5,189.6c-0.4-0.4-0.7-0.7-1-1.1c0.8-0.7,1.3-1.4,1.7-2.4h-1.4c-0.2,0.6-0.6,1.1-1,1.6
		c-0.3-0.3-0.7-0.8-1-1.2v0c1.2-0.5,1.8-1,1.8-1.7c0-0.8-0.7-1.4-1.8-1.4c-1.3,0-2.3,0.8-2.3,1.8c0,0.4,0.2,0.7,0.4,1l0,0
		c-0.9,0.4-1.7,1-1.7,1.9c0,1,0.9,1.6,2.2,1.6c0.7,0,1.3-0.2,1.9-0.5c0.1,0.1,0.2,0.3,0.4,0.4L407.5,189.6L407.5,189.6z
		 M403.8,188.7c-0.7,0-1.1-0.4-1.1-0.9c0-0.5,0.4-0.8,0.7-1c0.4,0.6,0.9,1.1,1.3,1.5C404.4,188.6,404.1,188.7,403.8,188.7
		L403.8,188.7z M404.6,184.2c0.4,0,0.6,0.2,0.6,0.5c0,0.5-0.5,0.8-1,1c-0.2-0.2-0.3-0.5-0.3-0.8
		C403.8,184.6,404.1,184.2,404.6,184.2C404.6,184.2,404.6,184.2,404.6,184.2L404.6,184.2z M411.4,189.6h1.5l1.1-5h1.9l0.3-1.1h-5.3
		l-0.3,1.1h1.9L411.4,189.6L411.4,189.6z M419.6,183.3c-0.9,0-1.9,0.3-2.6,0.9c-0.8,0.7-1.3,1.8-1.3,2.9c0,1.4,1,2.6,2.9,2.6
		c1,0,1.9-0.3,2.7-0.9c0.8-0.7,1.3-1.8,1.3-2.9C422.5,184.4,421.5,183.3,419.6,183.3L419.6,183.3z M419.4,184.4
		c1.1,0,1.5,0.7,1.5,1.5c0,0.7-0.3,1.7-0.9,2.2c-0.3,0.3-0.8,0.4-1.2,0.4c-1,0-1.5-0.6-1.5-1.5c0-0.7,0.3-1.7,0.9-2.2
		C418.5,184.6,418.9,184.4,419.4,184.4z M424,183.4l-0.8,3.4c-0.1,0.3-0.1,0.6-0.1,0.9c0,1.3,0.9,2,2.4,2c2,0,2.9-0.9,3.3-2.8
		l0.8-3.5h-1.5l-0.8,3.5c-0.3,1.1-0.8,1.6-1.6,1.6c-0.7,0-1-0.4-1-0.9c0-0.2,0-0.5,0.1-0.7l0.8-3.5L424,183.4L424,183.4z
		 M429.4,189.5c0.6,0.1,1.2,0.1,1.8,0.1c1.2,0,2.1-0.2,2.7-0.5c0.6-0.3,1-0.8,1-1.5c0-0.7-0.4-1.2-1.1-1.3v0
		c0.8-0.2,1.5-0.7,1.5-1.5c0-0.5-0.4-0.9-0.8-1.1c-0.5-0.2-1-0.3-1.8-0.3c-0.6,0-1.3,0-1.9,0.1L429.4,189.5z M432.1,184.5
		c0.2,0,0.4-0.1,0.6,0c0.6,0,1,0.2,1,0.6c0,0.5-0.6,0.8-1.4,0.8h-0.5L432.1,184.5L432.1,184.5z M431.5,186.8h0.5
		c0.7,0,1.3,0.2,1.3,0.8c0,0.7-0.8,1-1.6,1c-0.2,0-0.4,0-0.6,0L431.5,186.8L431.5,186.8z M435.5,189.6h1.5l0.5-2.4h0.5
		c0.6,0,0.9,0.2,1,1c0,0.5,0.1,1,0.2,1.4h1.6c-0.1-0.3-0.2-1.1-0.3-1.7c-0.1-0.6-0.3-1-0.7-1.1v0c0.9-0.3,1.6-0.8,1.6-1.7
		c0-0.6-0.3-1-0.8-1.2c-0.5-0.3-1.2-0.4-1.9-0.4c-0.6,0-1.3,0-1.9,0.2L435.5,189.6z M438.1,184.5c0.2,0,0.4-0.1,0.6,0
		c0.6,0,1.1,0.2,1.1,0.7c0,0.6-0.6,1-1.4,1h-0.6L438.1,184.5L438.1,184.5z M445.7,183.3c-0.9,0-1.9,0.3-2.6,0.9
		c-0.8,0.7-1.3,1.8-1.3,2.9c0,1.4,1,2.6,2.9,2.6c1,0,1.9-0.3,2.7-0.9c0.8-0.7,1.3-1.8,1.3-2.9C448.7,184.4,447.6,183.3,445.7,183.3
		L445.7,183.3z M445.6,184.4c1.1,0,1.5,0.7,1.5,1.5c0,0.7-0.3,1.7-0.9,2.2c-0.3,0.3-0.8,0.4-1.2,0.4c-1,0-1.5-0.6-1.5-1.5
		c0-0.7,0.3-1.7,0.9-2.2C444.7,184.6,445.1,184.4,445.6,184.4z"/>
</g>
</svg>
