<?xml version="1.0" encoding="utf-8"?>
<!-- Generator: Adobe Illustrator 25.3.1, SVG Export Plug-In . SVG Version: 6.00 Build 0)  -->
<svg version="1.1" id="Layer_1" xmlns="http://www.w3.org/2000/svg" xmlns:xlink="http://www.w3.org/1999/xlink" x="0px" y="0px"
	 viewBox="0 0 31.48 51.2" style="enable-background:new 0 0 31.48 51.2;" xml:space="preserve">
<style type="text/css">
	.st0{fill:#010101;}
</style>
<g>
	<path class="st0" d="M14.24,42.03v6.17h-9v3h21v-3h-9v-6.17c6.73-0.6,12.29-5.28,14.24-11.48l-2.86-0.9
		c-1.78,5.65-6.96,9.45-12.88,9.45s-11.1-3.8-12.88-9.45L0,30.55C1.95,36.75,7.5,41.43,14.24,42.03z"/>
	<path class="st0" d="M15.74,36.1c5.79,0,10.5-4.71,10.5-10.5v-15c0-5.84-4.71-10.6-10.5-10.6S5.24,4.76,5.24,10.6v15
		C5.24,31.39,9.95,36.1,15.74,36.1z M8.24,18.1h4.5v-3h-4.5v-3h4.5v-3H8.39C9.08,5.63,12.11,3,15.74,3s6.66,2.63,7.35,6.1h-4.35v3
		h4.5v3h-4.5v3h4.5v3h-15V18.1z M8.24,24.1h15v1.5c0,4.14-3.36,7.5-7.5,7.5s-7.5-3.36-7.5-7.5V24.1z"/>
</g>
</svg>
