<?xml version="1.0" encoding="utf-8"?>
<!-- Generator: Adobe Illustrator 25.3.1, SVG Export Plug-In . SVG Version: 6.00 Build 0)  -->
<svg version="1.1" id="Layer_1" xmlns="http://www.w3.org/2000/svg" xmlns:xlink="http://www.w3.org/1999/xlink" x="0px" y="0px"
	 viewBox="0 0 51.2 30.78" style="enable-background:new 0 0 51.2 30.78;" xml:space="preserve">
<style type="text/css">
	.st0{fill:#010101;}
</style>
<g>
	<path class="st0" d="M51.2,25.6c0-6.84-2.66-13.27-7.5-18.1C38.87,2.66,32.44,0,25.6,0S12.33,2.66,7.5,7.5
		C2.66,12.33,0,18.76,0,25.6v1.5h20.5c0.41,1.23,1.24,2.26,2.37,2.93c0.86,0.51,1.8,0.75,2.72,0.75c1.84,0,3.64-0.94,4.64-2.64
		c0.2-0.33,0.35-0.68,0.47-1.03h20.5V25.6z M27.65,26.61c-0.67,1.13-2.12,1.5-3.25,0.84c-0.55-0.32-0.93-0.84-1.09-1.45
		c-0.16-0.61-0.07-1.25,0.25-1.8c0.32-0.55,0.84-0.93,1.45-1.09c0.2-0.05,0.4-0.08,0.6-0.08c0.42,0,0.83,0.11,1.2,0.33
		c0.55,0.32,0.93,0.84,1.09,1.45C28.06,25.42,27.97,26.06,27.65,26.61L27.65,26.61z M30.81,24.1c0-0.01-0.01-0.03-0.01-0.04
		c-0.23-0.89-0.67-1.69-1.29-2.34l4.31-7.3l-2.58-1.53l-4.31,7.3c-0.87-0.22-1.78-0.23-2.67,0c-1.39,0.36-2.56,1.24-3.29,2.47
		c-0.27,0.45-0.46,0.93-0.59,1.43H3.05c0.2-3.02,1-5.89,2.27-8.47l3.33,1.92l1.5-2.6l-3.33-1.92c1.64-2.45,3.75-4.56,6.2-6.2
		l1.92,3.33l2.6-1.5l-1.92-3.33c2.59-1.28,5.45-2.07,8.47-2.27V6.9h3V3.05c3.02,0.2,5.89,1,8.47,2.27l-1.92,3.33l2.6,1.5l1.92-3.33
		c2.45,1.64,4.56,3.75,6.2,6.2l-3.33,1.92l1.5,2.6l3.33-1.92c1.28,2.59,2.08,5.45,2.28,8.47L30.81,24.1z"/>
</g>
</svg>
