<?xml version="1.0" encoding="utf-8"?>
<!-- Generator: Adobe Illustrator 25.3.1, SVG Export Plug-In . SVG Version: 6.00 Build 0)  -->
<svg version="1.1" id="Layer_1" xmlns="http://www.w3.org/2000/svg" xmlns:xlink="http://www.w3.org/1999/xlink" x="0px" y="0px"
	 viewBox="0 0 51.2 51.2" style="enable-background:new 0 0 51.2 51.2;" xml:space="preserve">
<style type="text/css">
	.st0{fill:#010101;}
</style>
<g>
	<path class="st0" d="M43.7,7.5C38.87,2.66,32.44,0,25.6,0S12.33,2.66,7.5,7.5C2.66,12.33,0,18.76,0,25.6s2.66,13.27,7.5,18.1
		c4.84,4.84,11.26,7.5,18.1,7.5s13.27-2.66,18.1-7.5c4.84-4.84,7.5-11.26,7.5-18.1S48.54,12.33,43.7,7.5L43.7,7.5z M25.6,3
		c6.04,0,11.71,2.35,15.98,6.62c1.36,1.36,2.53,2.87,3.48,4.48H25.6c-5.5,0-10.11,3.88-11.23,9.04l-6.6-11.43
		c0.57-0.73,1.19-1.43,1.85-2.09C13.89,5.35,19.56,3,25.6,3L25.6,3z M34.1,25.6c0,4.69-3.81,8.5-8.5,8.5s-8.5-3.81-8.5-8.5
		s3.81-8.5,8.5-8.5S34.1,20.91,34.1,25.6z M3,25.6c0-3.96,1.01-7.76,2.91-11.11l9.66,16.73c0.01,0.02,0.03,0.04,0.04,0.07
		c1.98,3.47,5.72,5.81,9.99,5.81c1.22,0,2.39-0.19,3.49-0.54l-6.6,11.43c-4.86-0.66-9.34-2.88-12.87-6.41C5.35,37.31,3,31.64,3,25.6
		L3,25.6z M41.58,41.58c-4.21,4.21-9.8,6.56-15.75,6.62l9.66-16.73c0.01-0.02,0.02-0.04,0.03-0.06c1-1.7,1.58-3.69,1.58-5.8
		c0-3.36-1.45-6.4-3.76-8.5h13.21c1.08,2.66,1.65,5.54,1.65,8.5C48.2,31.64,45.85,37.31,41.58,41.58L41.58,41.58z"/>
</g>
</svg>
